<?xml version="1.0" standalone="no"?>
<!DOCTYPE svg PUBLIC "-//W3C//DTD SVG 20010904//EN"
 "http://www.w3.org/TR/2001/REC-SVG-20010904/DTD/svg10.dtd">
<svg version="1.0" xmlns="http://www.w3.org/2000/svg"
 width="3331.000000pt" height="877.000000pt" viewBox="0 0 3331.000000 877.000000"
 preserveAspectRatio="xMidYMid meet">

<g transform="translate(0.000000,877.000000) scale(0.100000,-0.100000)"
fill="#000000" stroke="none">
<path d="M9467 6803 c-4 -3 -7 -190 -7 -415 l0 -408 735 0 735 0 0 -1895 0
-1895 525 0 525 0 0 1895 0 1895 845 0 c465 0 845 -1 845 -2 0 -2 -33 -68 -73
-148 -82 -163 -123 -269 -172 -447 -122 -444 -138 -1029 -39 -1496 154 -729
544 -1308 1049 -1557 134 -66 206 -92 345 -122 93 -21 121 -22 1178 -25 l1082
-4 0 425 0 425 -907 3 -908 3 -84 32 c-272 105 -520 374 -621 673 -27 81 -53
254 -45 302 l7 38 1279 0 1279 0 -2 423 -3 422 -1294 3 -1293 2 7 93 c20 283
91 484 229 648 113 135 261 227 445 277 l96 26 908 4 907 3 0 415 0 414 -3783
0 c-2081 0 -3787 -3 -3790 -7z"/>
<path d="M19066 6799 c-433 -39 -856 -245 -1130 -554 -316 -355 -493 -807
-547 -1399 -15 -166 -6 -709 15 -901 51 -455 152 -783 320 -1034 234 -349 597
-592 1034 -693 l97 -23 2518 -2 2517 -3 -2 417 -3 418 -2305 5 c-1891 4 -2312
8 -2345 19 -22 7 -78 33 -125 57 -306 157 -542 492 -596 847 -14 87 -15 174
-10 607 7 526 13 604 56 759 89 319 314 546 625 633 79 22 86 22 993 25 l912
4 0 414 0 415 -962 -1 c-530 -1 -1007 -6 -1062 -10z"/>
<path d="M22741 6799 c-518 -46 -945 -311 -1141 -708 -52 -103 -85 -202 -112
-324 -19 -87 -22 -132 -22 -307 0 -228 15 -327 75 -497 140 -395 456 -686 890
-817 213 -64 245 -66 1041 -66 434 0 736 -4 769 -10 153 -28 330 -171 405
-325 67 -140 58 -275 -26 -422 -40 -69 -129 -164 -198 -209 -93 -62 -167 -84
-282 -84 l-100 0 0 -420 0 -420 228 0 c125 0 268 5 317 10 612 69 1017 354
1169 826 45 137 57 220 63 420 6 202 -3 319 -37 479 -120 577 -534 917 -1199
985 -62 6 -404 10 -855 10 -645 0 -760 2 -811 15 -198 51 -365 301 -365 544 0
152 46 268 144 367 70 69 146 110 232 124 36 6 553 10 1332 10 l1272 0 -2 413
-3 412 -1345 1 c-740 1 -1387 -2 -1439 -7z"/>
<path d="M26125 5163 c3 -946 10 -1691 16 -1749 31 -319 156 -588 367 -785
257 -240 621 -374 1162 -425 212 -21 721 -15 910 10 113 15 370 63 377 70 2 2
2 244 1 539 l-3 536 -52 -65 c-67 -80 -147 -144 -245 -194 -136 -68 -173 -72
-615 -67 -360 4 -394 6 -468 26 -319 87 -477 308 -514 718 -7 82 -11 596 -11
1577 l0 1456 -466 0 -466 0 7 -1647z"/>
<path d="M29120 4570 l0 -2240 73 26 c111 40 293 136 387 205 242 176 404 429
464 721 34 169 36 258 36 1898 l0 1630 -480 0 -480 0 0 -2240z"/>
<path d="M30237 6804 c-4 -4 -7 -191 -7 -416 l0 -409 558 8 c306 4 670 8 808
8 l250 0 79 -39 c139 -69 269 -222 326 -386 34 -97 32 -245 -5 -360 -78 -239
-236 -454 -386 -524 -44 -21 -56 -21 -837 -24 l-793 -2 0 -416 0 -415 913 3
c891 4 915 4 1023 26 343 68 579 184 773 382 159 163 284 408 335 660 55 273
49 651 -15 902 -124 493 -455 820 -957 947 -210 54 -224 54 -1172 58 -487 3
-889 1 -893 -3z"/>
<path d="M30810 1300 l0 -90 85 0 85 0 0 90 0 90 -85 0 -85 0 0 -90z"/>
<path d="M32380 1300 l0 -90 85 0 85 0 0 90 0 90 -85 0 -85 0 0 -90z"/>
<path d="M27360 830 l0 -480 85 0 85 0 0 480 0 480 -85 0 -85 0 0 -480z"/>
<path d="M25706 1040 c-63 -25 -130 -90 -161 -157 -51 -107 -53 -274 -4 -379
30 -63 109 -130 178 -151 76 -23 226 -22 309 2 l62 18 0 63 c0 72 3 70 -85 49
-112 -27 -226 -14 -277 32 -23 20 -57 89 -58 116 0 16 17 17 221 17 l222 0 -6
93 c-6 110 -26 170 -74 226 -52 61 -103 84 -198 88 -62 3 -91 -1 -129 -17z
m179 -132 c29 -23 55 -74 55 -108 0 -19 -6 -20 -130 -20 -141 0 -141 0 -119
57 13 34 47 72 74 83 38 16 91 11 120 -12z"/>
<path d="M26530 1039 c-25 -11 -61 -36 -81 -56 l-37 -35 -7 51 -7 52 -66 -3
-67 -3 -3 -347 -2 -348 85 0 85 0 0 243 0 243 28 27 c61 59 160 75 208 34 36
-32 43 -79 43 -334 l1 -213 81 0 80 0 -3 278 c-3 261 -4 279 -25 317 -43 81
-105 115 -205 115 -42 0 -78 -7 -108 -21z"/>
<path d="M27995 1037 c-28 -13 -64 -38 -80 -56 l-30 -31 -11 47 -10 48 -67 3
-67 3 0 -351 0 -350 80 0 80 0 0 238 0 238 33 31 c17 17 47 39 66 48 46 23
124 16 154 -14 21 -21 22 -30 25 -281 l3 -260 86 0 85 0 -4 273 c-4 267 -4
273 -29 322 -16 31 -42 62 -68 80 -37 26 -53 30 -119 33 -64 2 -85 -1 -127
-21z"/>
<path d="M28665 1036 c-64 -30 -107 -76 -140 -148 -51 -111 -56 -261 -13 -377
58 -155 226 -219 377 -145 l61 31 0 -64 c0 -84 -25 -135 -83 -165 -56 -29
-206 -37 -289 -15 l-58 15 0 -68 0 -69 38 -11 c20 -7 80 -14 133 -17 167 -10
297 34 364 120 52 70 55 96 55 529 l0 398 -70 0 -70 0 0 -41 0 -41 -31 27
c-84 70 -181 85 -274 41z m246 -150 l39 -26 0 -165 0 -165 -42 -27 c-35 -23
-52 -28 -106 -28 -62 0 -65 1 -98 39 -77 89 -69 304 15 380 45 41 123 37 192
-8z"/>
<path d="M29484 1050 c-60 -19 -128 -73 -162 -130 -47 -79 -57 -121 -57 -240
1 -91 4 -112 26 -160 51 -110 122 -160 256 -180 73 -12 190 -2 261 21 32 10
32 11 32 75 0 72 3 70 -85 49 -113 -28 -209 -16 -266 32 -33 28 -59 78 -59
113 0 19 5 20 221 20 l222 0 -6 83 c-9 107 -30 176 -70 229 -50 66 -105 91
-202 95 -44 1 -94 -2 -111 -7z m146 -133 c26 -13 70 -88 70 -119 0 -16 -12
-18 -130 -18 -128 0 -130 0 -130 23 1 34 32 86 66 107 33 23 87 26 124 7z"/>
<path d="M30282 1035 c-30 -14 -67 -39 -82 -55 l-29 -31 -6 38 c-11 64 -10 63
-80 63 l-65 0 0 -350 0 -350 80 0 80 0 0 238 0 238 33 31 c17 17 47 39 66 48
46 23 124 16 154 -14 21 -21 22 -30 25 -281 l3 -260 79 0 80 0 0 275 c0 275 0
276 -25 325 -38 75 -89 104 -184 108 -64 2 -84 -1 -129 -23z"/>
<path d="M31350 1051 c-166 -54 -259 -249 -217 -455 27 -130 91 -207 204 -243
68 -22 230 -21 311 2 l62 18 0 63 c0 72 3 70 -85 49 -112 -27 -226 -14 -277
32 -23 20 -57 89 -58 116 0 16 17 17 221 17 l222 0 -6 93 c-7 111 -26 171 -74
226 -52 62 -103 84 -198 87 -44 2 -91 0 -105 -5z m155 -143 c29 -23 55 -74 55
-108 0 -19 -6 -20 -130 -20 -141 0 -141 0 -119 57 13 34 47 72 74 83 38 16 91
11 120 -12z"/>
<path d="M32132 1039 c-23 -12 -55 -37 -71 -56 l-29 -35 -7 51 -7 52 -66 -3
-67 -3 -3 -347 -2 -348 85 0 85 0 0 238 c0 235 0 239 23 259 37 35 87 55 149
60 l58 6 0 73 0 74 -52 0 c-34 0 -69 -8 -96 -21z"/>
<path d="M32875 1054 c-11 -3 -41 -12 -67 -20 l-48 -16 0 -65 c0 -63 1 -65 23
-59 142 41 195 45 250 22 45 -19 68 -48 74 -93 l5 -38 -124 0 c-107 0 -128 -3
-163 -22 -117 -62 -158 -195 -97 -314 32 -64 72 -93 148 -109 72 -15 138 0
198 46 25 19 47 34 50 34 3 0 6 -16 6 -35 l0 -35 74 0 73 0 -4 243 c-2 133 -6
261 -9 284 -7 58 -53 117 -116 150 -46 23 -67 27 -153 29 -55 2 -109 0 -120
-2z m204 -400 c30 -6 31 -7 31 -65 0 -57 -1 -59 -39 -85 -69 -45 -157 -45
-187 1 -33 51 -13 123 41 146 24 10 111 11 154 3z"/>
<path d="M30810 700 l0 -350 80 0 80 0 0 350 0 350 -80 0 -80 0 0 -350z"/>
<path d="M32387 1044 c-4 -4 -7 -162 -7 -351 l0 -343 85 0 85 0 -2 348 -3 347
-75 3 c-42 1 -79 0 -83 -4z"/>
</g>
</svg>
